<?xml version="1.0" encoding="utf-8"?>
<!-- Generator: Adobe Illustrator 26.0.0, SVG Export Plug-In . SVG Version: 6.00 Build 0)  -->
<svg version="1.1" id="Layer_1" xmlns="http://www.w3.org/2000/svg" xmlns:xlink="http://www.w3.org/1999/xlink" x="0px" y="0px"
	 viewBox="0 0 256 128" style="enable-background:new 0 0 256 128;" xml:space="preserve">
<style type="text/css">
	.st0{fill:none;stroke:#000000;stroke-miterlimit:10;}
	.st1{fill:none;stroke:#000000;stroke-width:3;stroke-miterlimit:10;}
	.st2{fill:none;stroke:#000000;stroke-width:5;stroke-miterlimit:10;}
</style>
<path class="st0" d="M11.53,50.98"/>
<path class="st0" d="M15.94,83.85"/>
<path class="st0" d="M7.13,76.38"/>
<path class="st0" d="M78.72,98.79"/>
<path class="st1" d="M189.29,104.31c-22.7,0.76-52.51-0.64-85.08-9.13c-9.08-2.36-17.52-4.98-25.12-7.77
	c-11.34,10.61-22.79,13.87-28.11,14.99c-9.5,2-18.1,1.27-27.78,0.24c-8.62-0.91-15.87-2.41-19.59-3.23
	c5.88-0.37,13.99-1.73,23.13-5.98c8.51-3.96,15.15-9.14,19.83-13.45c-2.82-3.2-6.84-7.13-12.12-10.46
	c-5.54-3.5-10.49-5.46-14.22-6.29c3.73-0.83,8.87-2.79,14.42-6.29c5.28-3.33,9.3-7.25,12.12-10.46
	c-4.67-4.31-11.31-9.49-19.83-13.45c-9.14-4.25-17.25-5.6-23.13-5.98c3.71-0.82,10.97-2.31,19.59-3.23
	c9.67-1.03,18.27-1.76,27.78,0.24c5.32,1.12,16.66,4.37,28.01,14.99c9.54-4.28,20.69-8.43,33.36-11.69
	c30.32-7.79,57.03-7.31,76-5.21"/>
<path class="st1" d="M165.33,20.86c-8.58-1.91-18.19-3.6-28.71-4.74c-12.4-1.34-23.76-1.67-33.8-1.45c3.5,0.45,9.27,1.72,14.95,5.75
	c2.16,1.53,3.88,3.15,5.22,4.64"/>
<path class="st1" d="M178.36,104.49c-3.55,2.08-9.04,4.79-16.4,6.7c-6.49,1.69-12.25,2.18-16.4,2.28c1.62-0.35,4.79-1.22,7.78-3.4
	c3.22-2.35,4.53-4.98,5.04-6.23"/>
<path class="st1" d="M111.96,97.08c-1.26,1.22-3.13,2.75-5.67,4.02c-3.79,1.9-7.29,2.33-9.39,2.41c4.38,0.66,10.26,1.09,17.11,0.34
	c6.01-0.66,11.05-2.05,14.9-3.41"/>
<path class="st1" d="M188.56,22.19c0.15,13.66,0.26,27.4,0.32,41.22c0.06,13.72,0.08,27.36,0.05,40.91
	c6.33,0.43,30.67,1.34,50.67-15.89c8.26-7.11,13.14-15.05,15.97-20.84c-7.71-0.61-15.42-1.22-23.13-1.83
	c7.86-2.33,15.72-4.65,23.57-6.98c-1.09-3.11-3.04-7.58-6.56-12.22c0,0-4.41-5.81-11.56-10.67
	C221.77,24.95,190.11,22.31,188.56,22.19z"/>
<path class="st2" d="M33.66,31.09l45.53,19.8L42.6,63.73l36.6,14.39c-14.43,6.08-28.87,12.17-43.3,18.25"/>
<path class="st2" d="M105.75,63.73c22.87,0.04,45.74,0.07,68.61,0.11"/>
<path class="st2" d="M193.59,63.53c-0.04-11.07-0.07-22.13-0.11-33.2c5.66,0.1,11.32,0.19,16.98,0.29
	c0.82,0.18,8.68,2.06,12.03,9.81c0.36,0.83,2.94,7.09-0.15,13.54c-2.91,6.06-9.64,9.8-17,9.42
	C201.41,63.44,197.5,63.48,193.59,63.53z"/>
<path class="st2" d="M193.59,63.53c0.04,11.23,0.08,22.46,0.11,33.7c6.05-0.08,12.09-0.16,18.14-0.24c0.74-0.19,8.51-2.3,11.39-9.97
	c2.84-7.56-1.48-14.08-2.24-15.24c-5.25-7.94-14.69-8.36-15.67-8.39C201.41,63.44,197.5,63.48,193.59,63.53z"/>
</svg>
